<?xml version="1.0" standalone="no"?>
<!DOCTYPE svg PUBLIC "-//W3C//DTD SVG 20010904//EN"
 "http://www.w3.org/TR/2001/REC-SVG-20010904/DTD/svg10.dtd">
<svg version="1.0" xmlns="http://www.w3.org/2000/svg"
 width="220.000000pt" height="220.000000pt" viewBox="0 0 220.000000 220.000000"
 preserveAspectRatio="xMidYMid meet">

<g transform="translate(0.000000,220.000000) scale(0.100000,-0.100000)"
fill="#000000" stroke="none">
<path d="M618 2029 c-10 -5 -23 -19 -28 -30 -29 -53 -553 -1550 -557 -1590 -8
-71 30 -129 85 -129 34 0 70 38 90 98 31 88 409 1153 454 1277 97 269 101 296
51 355 -26 31 -62 39 -95 19z"/>
<path d="M1327 2018 c-18 -17 -65 -137 -180 -463 -86 -242 -211 -593 -277
-780 -110 -308 -121 -345 -117 -394 3 -44 9 -59 31 -78 48 -41 103 -23 131 45
9 19 86 234 171 476 86 243 207 584 270 759 63 175 114 330 114 343 0 53 -49
114 -91 114 -15 0 -39 -10 -52 -22z"/>
<path d="M2043 2018 c-11 -13 -82 -198 -158 -413 -76 -214 -153 -433 -172
-485 -19 -52 -42 -120 -53 -150 -10 -30 -34 -98 -53 -150 -139 -385 -139 -383
-134 -439 3 -44 9 -59 31 -78 15 -13 38 -23 51 -23 58 0 61 6 344 805 147 418
274 777 280 798 16 46 7 89 -26 127 -31 38 -80 41 -110 8z"/>
</g>
</svg>
